STARTFONT 2.1
COMMENT  
COMMENT  WARNING:  This bdf file was generated from an X server using
COMMENT  xbdfdump.  The resulting font is subject to the same copyright,
COMMENT  license, and trademark restrictions as the original font.  The
COMMENT  author and distributors of xbdfdump disclaim all liability for
COMMENT  misuse of the program or its output.
COMMENT  
FONT -Phaisarn-Browallia-Medium-R-Normal--12-120-75-75-C-100-tis620-0
SIZE 12 75 75
FONTBOUNDINGBOX 22 22 -7 -6
STARTPROPERTIES 21
FONTNAME_REGISTRY ""
FOUNDRY "Phaisarn"
FAMILY_NAME "Browallia"
WEIGHT_NAME "Medium"
SLANT "R"
SETWIDTH_NAME "Normal"
ADD_STYLE_NAME ""
PIXEL_SIZE 12
POINT_SIZE 120
RESOLUTION_X 75
RESOLUTION_Y 75
SPACING "C"
AVERAGE_WIDTH 100
CHARSET_REGISTRY "tis620"
CHARSET_ENCODING "0"
COPYRIGHT "Copyright 1997  Phaisarn Techajaruwong, TITech."
WEIGHT 10
X_HEIGHT 16
QUAD_WIDTH 10
FONT_ASCENT 16
FONT_DESCENT 6
ENDPROPERTIES
CHARS 224
STARTCHAR space
ENCODING 32
SWIDTH 480 0
DWIDTH 6 0
BBX 1 1 0 0
BITMAP
00
ENDCHAR
STARTCHAR exclam
ENCODING 33
SWIDTH 240 0
DWIDTH 3 0
BBX 1 9 1 0
BITMAP
80
80
80
80
80
80
80
00
80
ENDCHAR
STARTCHAR quotedbl
ENCODING 34
SWIDTH 400 0
DWIDTH 5 0
BBX 3 3 1 6
BITMAP
a0
a0
a0
ENDCHAR
STARTCHAR numbersign
ENCODING 35
SWIDTH 720 0
DWIDTH 9 0
BBX 7 9 1 0
BITMAP
12
12
7e
24
24
fe
24
48
48
ENDCHAR
STARTCHAR dollar
ENCODING 36
SWIDTH 560 0
DWIDTH 7 0
BBX 5 11 1 -1
BITMAP
20
70
a8
a0
a0
70
28
a8
a8
70
20
ENDCHAR
STARTCHAR percent
ENCODING 37
SWIDTH 960 0
DWIDTH 12 0
BBX 10 9 1 0
BITMAP
0080
6100
9200
9200
6400
0980
0a40
1240
2180
ENDCHAR
STARTCHAR ampersand
ENCODING 38
SWIDTH 720 0
DWIDTH 9 0
BBX 7 9 1 0
BITMAP
30
48
48
30
60
94
8c
8c
72
ENDCHAR
STARTCHAR apostrophe
ENCODING 39
SWIDTH 320 0
DWIDTH 4 0
BBX 2 3 1 6
BITMAP
40
c0
80
ENDCHAR
STARTCHAR parenleft
ENCODING 40
SWIDTH 400 0
DWIDTH 5 0
BBX 3 11 1 -2
BITMAP
20
40
40
80
80
80
80
80
40
40
20
ENDCHAR
STARTCHAR parenright
ENCODING 41
SWIDTH 400 0
DWIDTH 5 0
BBX 3 11 1 -2
BITMAP
80
40
40
20
20
20
20
20
40
40
80
ENDCHAR
STARTCHAR asterisk
ENCODING 42
SWIDTH 560 0
DWIDTH 7 0
BBX 5 4 1 5
BITMAP
20
f8
20
50
ENDCHAR
STARTCHAR plus
ENCODING 43
SWIDTH 560 0
DWIDTH 7 0
BBX 5 5 1 2
BITMAP
20
20
f8
20
20
ENDCHAR
STARTCHAR comma
ENCODING 44
SWIDTH 320 0
DWIDTH 4 0
BBX 2 3 1 -2
BITMAP
40
40
80
ENDCHAR
STARTCHAR minus
ENCODING 45
SWIDTH 400 0
DWIDTH 5 0
BBX 3 1 1 3
BITMAP
e0
ENDCHAR
STARTCHAR period
ENCODING 46
SWIDTH 240 0
DWIDTH 3 0
BBX 1 1 1 0
BITMAP
80
ENDCHAR
STARTCHAR slash
ENCODING 47
SWIDTH 400 0
DWIDTH 5 0
BBX 3 9 1 0
BITMAP
20
20
40
40
40
40
40
80
80
ENDCHAR
STARTCHAR 0
ENCODING 48
SWIDTH 560 0
DWIDTH 7 0
BBX 5 9 1 0
BITMAP
70
88
88
88
88
88
88
88
70
ENDCHAR
STARTCHAR 1
ENCODING 49
SWIDTH 400 0
DWIDTH 5 0
BBX 3 9 1 0
BITMAP
20
60
a0
20
20
20
20
20
20
ENDCHAR
STARTCHAR 2
ENCODING 50
SWIDTH 560 0
DWIDTH 7 0
BBX 5 9 1 0
BITMAP
70
88
88
08
10
20
40
80
f8
ENDCHAR
STARTCHAR 3
ENCODING 51
SWIDTH 560 0
DWIDTH 7 0
BBX 5 9 1 0
BITMAP
70
88
08
08
30
08
08
88
70
ENDCHAR
STARTCHAR 4
ENCODING 52
SWIDTH 640 0
DWIDTH 8 0
BBX 6 9 1 0
BITMAP
08
18
28
28
48
88
fc
08
08
ENDCHAR
STARTCHAR 5
ENCODING 53
SWIDTH 560 0
DWIDTH 7 0
BBX 5 9 1 0
BITMAP
78
40
80
f0
88
08
88
88
70
ENDCHAR
STARTCHAR 6
ENCODING 54
SWIDTH 560 0
DWIDTH 7 0
BBX 5 9 1 0
BITMAP
70
88
80
b0
c8
88
88
88
70
ENDCHAR
STARTCHAR 7
ENCODING 55
SWIDTH 640 0
DWIDTH 8 0
BBX 6 9 1 0
BITMAP
fc
08
08
10
20
20
40
40
40
ENDCHAR
STARTCHAR 8
ENCODING 56
SWIDTH 560 0
DWIDTH 7 0
BBX 5 9 1 0
BITMAP
70
88
88
88
70
88
88
88
70
ENDCHAR
STARTCHAR 9
ENCODING 57
SWIDTH 560 0
DWIDTH 7 0
BBX 5 9 1 0
BITMAP
70
88
88
88
98
68
08
88
70
ENDCHAR
STARTCHAR colon
ENCODING 58
SWIDTH 240 0
DWIDTH 3 0
BBX 1 7 1 0
BITMAP
80
00
00
00
00
00
80
ENDCHAR
STARTCHAR semicolon
ENCODING 59
SWIDTH 320 0
DWIDTH 4 0
BBX 2 9 1 -2
BITMAP
40
00
00
00
00
00
40
40
80
ENDCHAR
STARTCHAR less
ENCODING 60
SWIDTH 640 0
DWIDTH 8 0
BBX 6 7 1 1
BITMAP
04
18
60
80
60
18
04
ENDCHAR
STARTCHAR equal
ENCODING 61
SWIDTH 560 0
DWIDTH 7 0
BBX 5 4 1 3
BITMAP
f8
00
00
f8
ENDCHAR
STARTCHAR greater
ENCODING 62
SWIDTH 640 0
DWIDTH 8 0
BBX 6 7 1 1
BITMAP
80
60
18
04
18
60
80
ENDCHAR
STARTCHAR question
ENCODING 63
SWIDTH 560 0
DWIDTH 7 0
BBX 5 9 1 0
BITMAP
70
88
88
08
10
20
20
00
20
ENDCHAR
STARTCHAR at
ENCODING 64
SWIDTH 1040 0
DWIDTH 13 0
BBX 11 11 1 -2
BITMAP
0f00
30c0
4d40
9320
a120
a220
a220
a240
5fa0
6040
1f80
ENDCHAR
STARTCHAR A
ENCODING 65
SWIDTH 880 0
DWIDTH 11 0
BBX 9 9 1 0
BITMAP
0800
1400
1400
2200
2200
3e00
4100
4100
8080
ENDCHAR
STARTCHAR B
ENCODING 66
SWIDTH 640 0
DWIDTH 8 0
BBX 6 9 1 0
BITMAP
f8
84
84
84
f8
84
84
84
f8
ENDCHAR
STARTCHAR C
ENCODING 67
SWIDTH 720 0
DWIDTH 9 0
BBX 7 9 1 0
BITMAP
38
44
82
80
80
80
82
44
38
ENDCHAR
STARTCHAR D
ENCODING 68
SWIDTH 720 0
DWIDTH 9 0
BBX 7 9 1 0
BITMAP
f8
84
82
82
82
82
82
84
f8
ENDCHAR
STARTCHAR E
ENCODING 69
SWIDTH 640 0
DWIDTH 8 0
BBX 6 9 1 0
BITMAP
fc
80
80
80
f8
80
80
80
fc
ENDCHAR
STARTCHAR F
ENCODING 70
SWIDTH 640 0
DWIDTH 8 0
BBX 6 9 1 0
BITMAP
fc
80
80
80
f8
80
80
80
80
ENDCHAR
STARTCHAR G
ENCODING 71
SWIDTH 800 0
DWIDTH 10 0
BBX 8 9 1 0
BITMAP
3c
42
81
80
8f
81
81
41
3e
ENDCHAR
STARTCHAR H
ENCODING 72
SWIDTH 720 0
DWIDTH 9 0
BBX 7 9 1 0
BITMAP
82
82
82
82
fe
82
82
82
82
ENDCHAR
STARTCHAR I
ENCODING 73
SWIDTH 240 0
DWIDTH 3 0
BBX 1 9 1 0
BITMAP
80
80
80
80
80
80
80
80
80
ENDCHAR
STARTCHAR J
ENCODING 74
SWIDTH 560 0
DWIDTH 7 0
BBX 5 9 1 0
BITMAP
08
08
08
08
08
08
88
88
70
ENDCHAR
STARTCHAR K
ENCODING 75
SWIDTH 720 0
DWIDTH 9 0
BBX 7 9 1 0
BITMAP
84
88
90
a0
e0
90
88
84
82
ENDCHAR
STARTCHAR L
ENCODING 76
SWIDTH 560 0
DWIDTH 7 0
BBX 5 9 1 0
BITMAP
80
80
80
80
80
80
80
80
f8
ENDCHAR
STARTCHAR M
ENCODING 77
SWIDTH 880 0
DWIDTH 11 0
BBX 9 9 1 0
BITMAP
c180
c180
a280
a280
a280
9480
9480
9480
8880
ENDCHAR
STARTCHAR N
ENCODING 78
SWIDTH 720 0
DWIDTH 9 0
BBX 7 9 1 0
BITMAP
82
c2
a2
a2
92
8a
8a
86
82
ENDCHAR
STARTCHAR O
ENCODING 79
SWIDTH 800 0
DWIDTH 10 0
BBX 8 9 1 0
BITMAP
3c
42
81
81
81
81
81
42
3c
ENDCHAR
STARTCHAR P
ENCODING 80
SWIDTH 640 0
DWIDTH 8 0
BBX 6 9 1 0
BITMAP
f8
84
84
84
f8
80
80
80
80
ENDCHAR
STARTCHAR Q
ENCODING 81
SWIDTH 800 0
DWIDTH 10 0
BBX 8 10 1 -1
BITMAP
3c
42
81
81
81
81
89
46
3a
01
ENDCHAR
STARTCHAR R
ENCODING 82
SWIDTH 800 0
DWIDTH 10 0
BBX 8 9 1 0
BITMAP
fc
82
82
82
fc
88
84
82
81
ENDCHAR
STARTCHAR S
ENCODING 83
SWIDTH 640 0
DWIDTH 8 0
BBX 6 9 1 0
BITMAP
78
84
84
80
78
04
84
84
78
ENDCHAR
STARTCHAR T
ENCODING 84
SWIDTH 720 0
DWIDTH 9 0
BBX 7 9 1 0
BITMAP
fe
10
10
10
10
10
10
10
10
ENDCHAR
STARTCHAR U
ENCODING 85
SWIDTH 720 0
DWIDTH 9 0
BBX 7 9 1 0
BITMAP
82
82
82
82
82
82
82
44
38
ENDCHAR
STARTCHAR V
ENCODING 86
SWIDTH 720 0
DWIDTH 9 0
BBX 7 9 1 0
BITMAP
82
82
44
44
44
28
28
28
10
ENDCHAR
STARTCHAR W
ENCODING 87
SWIDTH 1040 0
DWIDTH 13 0
BBX 11 9 1 0
BITMAP
8420
8420
4a40
4a40
5140
5140
5140
2080
2080
ENDCHAR
STARTCHAR X
ENCODING 88
SWIDTH 800 0
DWIDTH 10 0
BBX 8 9 1 0
BITMAP
81
42
24
18
18
18
24
42
81
ENDCHAR
STARTCHAR Y
ENCODING 89
SWIDTH 720 0
DWIDTH 9 0
BBX 7 9 1 0
BITMAP
82
44
28
10
10
10
10
10
10
ENDCHAR
STARTCHAR Z
ENCODING 90
SWIDTH 720 0
DWIDTH 9 0
BBX 7 9 1 0
BITMAP
fe
02
04
08
10
20
40
80
fe
ENDCHAR
STARTCHAR bracketleft
ENCODING 91
SWIDTH 320 0
DWIDTH 4 0
BBX 2 11 1 -2
BITMAP
c0
80
80
80
80
80
80
80
80
80
c0
ENDCHAR
STARTCHAR backslash
ENCODING 92
SWIDTH 400 0
DWIDTH 5 0
BBX 3 9 1 0
BITMAP
80
80
40
40
40
40
40
20
20
ENDCHAR
STARTCHAR bracketright
ENCODING 93
SWIDTH 320 0
DWIDTH 4 0
BBX 2 11 1 -2
BITMAP
c0
40
40
40
40
40
40
40
40
40
c0
ENDCHAR
STARTCHAR asciicircum
ENCODING 94
SWIDTH 640 0
DWIDTH 8 0
BBX 6 5 1 4
BITMAP
30
30
48
48
84
ENDCHAR
STARTCHAR underscore
ENCODING 95
SWIDTH 720 0
DWIDTH 9 0
BBX 7 1 1 -2
BITMAP
fe
ENDCHAR
STARTCHAR grave
ENCODING 96
SWIDTH 320 0
DWIDTH 4 0
BBX 2 3 1 6
BITMAP
80
c0
40
ENDCHAR
STARTCHAR a
ENCODING 97
SWIDTH 560 0
DWIDTH 7 0
BBX 5 7 1 0
BITMAP
70
88
08
78
88
98
68
ENDCHAR
STARTCHAR b
ENCODING 98
SWIDTH 560 0
DWIDTH 7 0
BBX 5 9 1 0
BITMAP
80
80
b0
c8
88
88
88
c8
b0
ENDCHAR
STARTCHAR c
ENCODING 99
SWIDTH 480 0
DWIDTH 6 0
BBX 4 7 1 0
BITMAP
60
90
80
80
90
90
60
ENDCHAR
STARTCHAR d
ENCODING 100
SWIDTH 560 0
DWIDTH 7 0
BBX 5 9 1 0
BITMAP
08
08
68
98
88
88
88
98
68
ENDCHAR
STARTCHAR e
ENCODING 101
SWIDTH 560 0
DWIDTH 7 0
BBX 5 7 1 0
BITMAP
70
88
88
f8
80
88
70
ENDCHAR
STARTCHAR f
ENCODING 102
SWIDTH 400 0
DWIDTH 5 0
BBX 3 9 1 0
BITMAP
20
40
e0
40
40
40
40
40
40
ENDCHAR
STARTCHAR g
ENCODING 103
SWIDTH 560 0
DWIDTH 7 0
BBX 5 9 1 -2
BITMAP
68
98
88
88
88
98
68
88
70
ENDCHAR
STARTCHAR h
ENCODING 104
SWIDTH 560 0
DWIDTH 7 0
BBX 5 9 1 0
BITMAP
80
80
b0
c8
88
88
88
88
88
ENDCHAR
STARTCHAR i
ENCODING 105
SWIDTH 240 0
DWIDTH 3 0
BBX 1 9 1 0
BITMAP
80
00
80
80
80
80
80
80
80
ENDCHAR
STARTCHAR j
ENCODING 106
SWIDTH 320 0
DWIDTH 4 0
BBX 2 11 1 -2
BITMAP
40
00
40
40
40
40
40
40
40
40
80
ENDCHAR
STARTCHAR k
ENCODING 107
SWIDTH 560 0
DWIDTH 7 0
BBX 5 9 1 0
BITMAP
80
80
88
90
a0
e0
a0
90
88
ENDCHAR
STARTCHAR l
ENCODING 108
SWIDTH 240 0
DWIDTH 3 0
BBX 1 9 1 0
BITMAP
80
80
80
80
80
80
80
80
80
ENDCHAR
STARTCHAR m
ENCODING 109
SWIDTH 880 0
DWIDTH 11 0
BBX 9 7 1 0
BITMAP
b700
c880
8880
8880
8880
8880
8880
ENDCHAR
STARTCHAR n
ENCODING 110
SWIDTH 560 0
DWIDTH 7 0
BBX 5 7 1 0
BITMAP
b0
c8
88
88
88
88
88
ENDCHAR
STARTCHAR o
ENCODING 111
SWIDTH 560 0
DWIDTH 7 0
BBX 5 7 1 0
BITMAP
70
88
88
88
88
88
70
ENDCHAR
STARTCHAR p
ENCODING 112
SWIDTH 560 0
DWIDTH 7 0
BBX 5 9 1 -2
BITMAP
b0
c8
88
88
88
c8
b0
80
80
ENDCHAR
STARTCHAR q
ENCODING 113
SWIDTH 560 0
DWIDTH 7 0
BBX 5 9 1 -2
BITMAP
68
98
88
88
88
98
68
08
08
ENDCHAR
STARTCHAR r
ENCODING 114
SWIDTH 400 0
DWIDTH 5 0
BBX 3 7 1 0
BITMAP
e0
80
80
80
80
80
80
ENDCHAR
STARTCHAR s
ENCODING 115
SWIDTH 480 0
DWIDTH 6 0
BBX 4 7 1 0
BITMAP
60
90
80
60
10
90
60
ENDCHAR
STARTCHAR t
ENCODING 116
SWIDTH 400 0
DWIDTH 5 0
BBX 3 9 1 0
BITMAP
40
40
e0
40
40
40
40
40
20
ENDCHAR
STARTCHAR u
ENCODING 117
SWIDTH 560 0
DWIDTH 7 0
BBX 5 7 1 0
BITMAP
88
88
88
88
88
98
68
ENDCHAR
STARTCHAR v
ENCODING 118
SWIDTH 560 0
DWIDTH 7 0
BBX 5 7 1 0
BITMAP
88
88
50
50
50
50
20
ENDCHAR
STARTCHAR w
ENCODING 119
SWIDTH 880 0
DWIDTH 11 0
BBX 9 7 1 0
BITMAP
8880
9480
5500
5500
5500
2200
2200
ENDCHAR
STARTCHAR x
ENCODING 120
SWIDTH 640 0
DWIDTH 8 0
BBX 6 7 1 0
BITMAP
84
48
30
10
30
48
84
ENDCHAR
STARTCHAR y
ENCODING 121
SWIDTH 560 0
DWIDTH 7 0
BBX 5 9 1 -2
BITMAP
88
88
50
50
50
20
20
20
c0
ENDCHAR
STARTCHAR z
ENCODING 122
SWIDTH 560 0
DWIDTH 7 0
BBX 5 7 1 0
BITMAP
f8
08
10
20
40
80
f8
ENDCHAR
STARTCHAR braceleft
ENCODING 123
SWIDTH 400 0
DWIDTH 5 0
BBX 3 11 1 -2
BITMAP
20
40
40
40
40
80
40
40
40
40
20
ENDCHAR
STARTCHAR bar
ENCODING 124
SWIDTH 240 0
DWIDTH 3 0
BBX 1 11 1 -2
BITMAP
80
80
80
80
80
80
80
80
80
80
80
ENDCHAR
STARTCHAR braceright
ENCODING 125
SWIDTH 400 0
DWIDTH 5 0
BBX 3 11 1 -2
BITMAP
80
40
40
40
40
20
40
40
40
40
80
ENDCHAR
STARTCHAR asciitilde
ENCODING 126
SWIDTH 640 0
DWIDTH 8 0
BBX 6 2 1 3
BITMAP
64
98
ENDCHAR
STARTCHAR C177
ENCODING 127
SWIDTH 800 0
DWIDTH 10 0
BBX 8 14 0 0
BITMAP
00
00
00
00
00
00
00
00
00
00
00
00
00
00
ENDCHAR
STARTCHAR C200
ENCODING 128
SWIDTH 800 0
DWIDTH 10 0
BBX 8 14 0 0
BITMAP
00
00
00
00
00
00
00
00
00
00
00
00
00
00
ENDCHAR
STARTCHAR C201
ENCODING 129
SWIDTH 800 0
DWIDTH 10 0
BBX 8 14 0 0
BITMAP
00
00
00
00
00
00
00
00
00
00
00
00
00
00
ENDCHAR
STARTCHAR C202
ENCODING 130
SWIDTH 800 0
DWIDTH 10 0
BBX 8 14 0 0
BITMAP
00
00
00
00
00
00
00
00
00
00
00
00
00
00
ENDCHAR
STARTCHAR C203
ENCODING 131
SWIDTH 800 0
DWIDTH 10 0
BBX 8 14 0 0
BITMAP
00
00
00
00
00
00
00
00
00
00
00
00
00
00
ENDCHAR
STARTCHAR C204
ENCODING 132
SWIDTH 800 0
DWIDTH 10 0
BBX 8 14 0 0
BITMAP
00
00
00
00
00
00
00
00
00
00
00
00
00
00
ENDCHAR
STARTCHAR C205
ENCODING 133
SWIDTH 800 0
DWIDTH 10 0
BBX 8 14 0 0
BITMAP
00
00
00
00
00
00
00
00
00
00
00
00
00
00
ENDCHAR
STARTCHAR C206
ENCODING 134
SWIDTH 800 0
DWIDTH 10 0
BBX 8 14 0 0
BITMAP
00
00
00
00
00
00
00
00
00
00
00
00
00
00
ENDCHAR
STARTCHAR C207
ENCODING 135
SWIDTH 800 0
DWIDTH 10 0
BBX 8 14 0 0
BITMAP
00
00
00
00
00
00
00
00
00
00
00
00
00
00
ENDCHAR
STARTCHAR C210
ENCODING 136
SWIDTH 800 0
DWIDTH 10 0
BBX 8 14 0 0
BITMAP
00
00
00
00
00
00
00
00
00
00
00
00
00
00
ENDCHAR
STARTCHAR C211
ENCODING 137
SWIDTH 800 0
DWIDTH 10 0
BBX 8 14 0 0
BITMAP
00
00
00
00
00
00
00
00
00
00
00
00
00
00
ENDCHAR
STARTCHAR C212
ENCODING 138
SWIDTH 800 0
DWIDTH 10 0
BBX 8 14 0 0
BITMAP
00
00
00
00
00
00
00
00
00
00
00
00
00
00
ENDCHAR
STARTCHAR C213
ENCODING 139
SWIDTH 800 0
DWIDTH 10 0
BBX 8 14 0 0
BITMAP
00
00
00
00
00
00
00
00
00
00
00
00
00
00
ENDCHAR
STARTCHAR C214
ENCODING 140
SWIDTH 800 0
DWIDTH 10 0
BBX 8 14 0 0
BITMAP
00
00
00
00
00
00
00
00
00
00
00
00
00
00
ENDCHAR
STARTCHAR C215
ENCODING 141
SWIDTH 800 0
DWIDTH 10 0
BBX 8 14 0 0
BITMAP
00
00
00
00
00
00
00
00
00
00
00
00
00
00
ENDCHAR
STARTCHAR C216
ENCODING 142
SWIDTH 800 0
DWIDTH 10 0
BBX 8 14 0 0
BITMAP
00
00
00
00
00
00
00
00
00
00
00
00
00
00
ENDCHAR
STARTCHAR C217
ENCODING 143
SWIDTH 800 0
DWIDTH 10 0
BBX 8 14 0 0
BITMAP
00
00
00
00
00
00
00
00
00
00
00
00
00
00
ENDCHAR
STARTCHAR C220
ENCODING 144
SWIDTH 800 0
DWIDTH 10 0
BBX 8 14 0 0
BITMAP
00
00
00
00
00
00
00
00
00
00
00
00
00
00
ENDCHAR
STARTCHAR C221
ENCODING 145
SWIDTH 800 0
DWIDTH 10 0
BBX 8 14 0 0
BITMAP
00
00
00
00
00
00
00
00
00
00
00
00
00
00
ENDCHAR
STARTCHAR C222
ENCODING 146
SWIDTH 800 0
DWIDTH 10 0
BBX 8 14 0 0
BITMAP
00
00
00
00
00
00
00
00
00
00
00
00
00
00
ENDCHAR
STARTCHAR C223
ENCODING 147
SWIDTH 800 0
DWIDTH 10 0
BBX 8 14 0 0
BITMAP
00
00
00
00
00
00
00
00
00
00
00
00
00
00
ENDCHAR
STARTCHAR C224
ENCODING 148
SWIDTH 800 0
DWIDTH 10 0
BBX 8 14 0 0
BITMAP
00
00
00
00
00
00
00
00
00
00
00
00
00
00
ENDCHAR
STARTCHAR C225
ENCODING 149
SWIDTH 800 0
DWIDTH 10 0
BBX 8 14 0 0
BITMAP
00
00
00
00
00
00
00
00
00
00
00
00
00
00
ENDCHAR
STARTCHAR C226
ENCODING 150
SWIDTH 800 0
DWIDTH 10 0
BBX 8 14 0 0
BITMAP
00
00
00
00
00
00
00
00
00
00
00
00
00
00
ENDCHAR
STARTCHAR C227
ENCODING 151
SWIDTH 800 0
DWIDTH 10 0
BBX 8 14 0 0
BITMAP
00
00
00
00
00
00
00
00
00
00
00
00
00
00
ENDCHAR
STARTCHAR C230
ENCODING 152
SWIDTH 800 0
DWIDTH 10 0
BBX 8 14 0 0
BITMAP
00
00
00
00
00
00
00
00
00
00
00
00
00
00
ENDCHAR
STARTCHAR C231
ENCODING 153
SWIDTH 800 0
DWIDTH 10 0
BBX 8 14 0 0
BITMAP
00
00
00
00
00
00
00
00
00
00
00
00
00
00
ENDCHAR
STARTCHAR C232
ENCODING 154
SWIDTH 800 0
DWIDTH 10 0
BBX 8 14 0 0
BITMAP
00
00
00
00
00
00
00
00
00
00
00
00
00
00
ENDCHAR
STARTCHAR C233
ENCODING 155
SWIDTH 800 0
DWIDTH 10 0
BBX 8 14 0 0
BITMAP
00
00
00
00
00
00
00
00
00
00
00
00
00
00
ENDCHAR
STARTCHAR C234
ENCODING 156
SWIDTH 800 0
DWIDTH 10 0
BBX 8 14 0 0
BITMAP
00
00
00
00
00
00
00
00
00
00
00
00
00
00
ENDCHAR
STARTCHAR C235
ENCODING 157
SWIDTH 800 0
DWIDTH 10 0
BBX 8 14 0 0
BITMAP
00
00
00
00
00
00
00
00
00
00
00
00
00
00
ENDCHAR
STARTCHAR C236
ENCODING 158
SWIDTH 800 0
DWIDTH 10 0
BBX 8 14 0 0
BITMAP
00
00
00
00
00
00
00
00
00
00
00
00
00
00
ENDCHAR
STARTCHAR C237
ENCODING 159
SWIDTH 800 0
DWIDTH 10 0
BBX 8 14 0 0
BITMAP
00
00
00
00
00
00
00
00
00
00
00
00
00
00
ENDCHAR
STARTCHAR nobreakspace
ENCODING 160
SWIDTH 480 0
DWIDTH 6 0
BBX 1 1 0 0
BITMAP
00
ENDCHAR
STARTCHAR exclamdown
ENCODING 161
SWIDTH 720 0
DWIDTH 9 0
BBX 7 8 1 0
BITMAP
7c
c2
22
42
42
42
42
42
ENDCHAR
STARTCHAR cent
ENCODING 162
SWIDTH 720 0
DWIDTH 9 0
BBX 7 8 1 0
BITMAP
72
ca
aa
52
12
12
12
3e
ENDCHAR
STARTCHAR sterling
ENCODING 163
SWIDTH 720 0
DWIDTH 9 0
BBX 7 8 1 0
BITMAP
52
aa
ca
b2
52
12
12
3e
ENDCHAR
STARTCHAR currency
ENCODING 164
SWIDTH 640 0
DWIDTH 8 0
BBX 6 8 1 0
BITMAP
78
84
a4
d4
e4
44
44
44
ENDCHAR
STARTCHAR yen
ENCODING 165
SWIDTH 640 0
DWIDTH 8 0
BBX 6 8 1 0
BITMAP
68
94
84
a4
d4
e4
44
44
ENDCHAR
STARTCHAR brokenbar
ENCODING 166
SWIDTH 880 0
DWIDTH 11 0
BBX 9 8 1 0
BITMAP
6880
9480
c880
a880
4880
1880
2e80
1980
ENDCHAR
STARTCHAR section
ENCODING 167
SWIDTH 560 0
DWIDTH 7 0
BBX 5 8 1 0
BITMAP
10
28
18
08
88
48
28
10
ENDCHAR
STARTCHAR diaeresis
ENCODING 168
SWIDTH 640 0
DWIDTH 8 0
BBX 6 8 1 0
BITMAP
78
84
04
24
54
34
14
08
ENDCHAR
STARTCHAR copyright
ENCODING 169
SWIDTH 720 0
DWIDTH 9 0
BBX 8 8 1 0
BITMAP
78
84
04
64
a4
6e
35
26
ENDCHAR
STARTCHAR ordfeminine
ENCODING 170
SWIDTH 720 0
DWIDTH 9 0
BBX 8 9 1 0
BITMAP
01
72
cc
aa
52
12
12
12
3e
ENDCHAR
STARTCHAR guillemotleft
ENCODING 171
SWIDTH 720 0
DWIDTH 9 0
BBX 8 9 1 0
BITMAP
01
52
ac
ca
b2
52
12
12
3e
ENDCHAR
STARTCHAR notsign
ENCODING 172
SWIDTH 880 0
DWIDTH 11 0
BBX 9 8 1 0
BITMAP
7880
c480
2480
4480
4480
6c80
5680
2d80
ENDCHAR
STARTCHAR hyphen
ENCODING 173
SWIDTH 880 0
DWIDTH 11 0
BBX 9 12 1 -4
BITMAP
7880
c480
2480
4480
4480
6480
5480
2f80
0000
0480
0a80
0700
ENDCHAR
STARTCHAR registered
ENCODING 174
SWIDTH 720 0
DWIDTH 9 0
BBX 7 12 1 -4
BITMAP
3c
62
12
22
22
62
a2
42
0a
72
9a
64
ENDCHAR
STARTCHAR macron
ENCODING 175
SWIDTH 720 0
DWIDTH 9 0
BBX 7 12 1 -4
BITMAP
3c
62
12
22
22
62
a2
42
12
76
be
6a
ENDCHAR
STARTCHAR degree
ENCODING 176
SWIDTH 640 0
DWIDTH 8 0
BBX 6 12 1 -4
BITMAP
7c
e0
18
24
54
34
14
08
20
6c
b4
5c
ENDCHAR
STARTCHAR plusminus
ENCODING 177
SWIDTH 880 0
DWIDTH 11 0
BBX 9 8 1 0
BITMAP
5900
a680
ca80
aa80
4c80
0c80
0880
0880
ENDCHAR
STARTCHAR twosuperior
ENCODING 178
SWIDTH 960 0
DWIDTH 12 0
BBX 10 8 1 0
BITMAP
6c40
9a40
a240
d240
b240
a640
4b40
46c0
ENDCHAR
STARTCHAR threesuperior
ENCODING 179
SWIDTH 880 0
DWIDTH 11 0
BBX 10 8 1 0
BITMAP
7900
c500
2500
4500
4500
6580
5740
2580
ENDCHAR
STARTCHAR acute
ENCODING 180
SWIDTH 640 0
DWIDTH 8 0
BBX 6 8 1 0
BITMAP
78
84
a4
d4
a4
a4
44
44
ENDCHAR
STARTCHAR mu
ENCODING 181
SWIDTH 640 0
DWIDTH 8 0
BBX 6 8 1 0
BITMAP
68
94
a4
d4
a4
a4
44
44
ENDCHAR
STARTCHAR paragraph
ENCODING 182
SWIDTH 720 0
DWIDTH 9 0
BBX 7 8 1 0
BITMAP
7c
c2
22
42
42
62
52
22
ENDCHAR
STARTCHAR periodcentered
ENCODING 183
SWIDTH 720 0
DWIDTH 9 0
BBX 7 8 1 0
BITMAP
44
aa
6a
32
32
22
22
22
ENDCHAR
STARTCHAR cedilla
ENCODING 184
SWIDTH 640 0
DWIDTH 8 0
BBX 6 8 1 0
BITMAP
7c
80
f8
24
24
24
24
7c
ENDCHAR
STARTCHAR onesuperior
ENCODING 185
SWIDTH 720 0
DWIDTH 9 0
BBX 8 8 1 0
BITMAP
44
a4
64
24
24
2e
35
26
ENDCHAR
STARTCHAR masculine
ENCODING 186
SWIDTH 720 0
DWIDTH 9 0
BBX 7 8 1 0
BITMAP
42
a2
62
22
22
22
22
7e
ENDCHAR
STARTCHAR guillemotright
ENCODING 187
SWIDTH 720 0
DWIDTH 9 0
BBX 7 11 1 0
BITMAP
02
02
02
42
a2
62
22
22
22
22
7e
ENDCHAR
STARTCHAR onequarter
ENCODING 188
SWIDTH 640 0
DWIDTH 8 0
BBX 6 8 1 0
BITMAP
44
a4
c4
84
b4
cc
cc
84
ENDCHAR
STARTCHAR onehalf
ENCODING 189
SWIDTH 640 0
DWIDTH 8 0
BBX 6 11 1 0
BITMAP
04
04
04
44
a4
c4
84
b4
cc
cc
84
ENDCHAR
STARTCHAR threequarters
ENCODING 190
SWIDTH 800 0
DWIDTH 10 0
BBX 8 8 1 0
BITMAP
49
a9
6d
35
33
33
33
21
ENDCHAR
STARTCHAR questiondown
ENCODING 191
SWIDTH 800 0
DWIDTH 10 0
BBX 8 11 1 0
BITMAP
01
01
01
49
a9
6d
35
33
33
33
21
ENDCHAR
STARTCHAR Agrave
ENCODING 192
SWIDTH 800 0
DWIDTH 10 0
BBX 8 8 1 0
BITMAP
1e
61
31
21
21
61
a1
41
ENDCHAR
STARTCHAR Aacute
ENCODING 193
SWIDTH 720 0
DWIDTH 9 0
BBX 7 8 1 0
BITMAP
42
a2
62
22
22
7a
a6
66
ENDCHAR
STARTCHAR Acircumflex
ENCODING 194
SWIDTH 640 0
DWIDTH 8 0
BBX 6 8 1 0
BITMAP
44
a4
c4
84
64
84
84
fc
ENDCHAR
STARTCHAR Atilde
ENCODING 195
SWIDTH 560 0
DWIDTH 7 0
BBX 6 8 1 0
BITMAP
7c
80
f0
08
08
18
28
10
ENDCHAR
STARTCHAR Adiaeresis
ENCODING 196
SWIDTH 800 0
DWIDTH 10 0
BBX 8 11 1 -3
BITMAP
1e
61
31
21
21
61
a1
41
01
01
01
ENDCHAR
STARTCHAR Aring
ENCODING 197
SWIDTH 640 0
DWIDTH 8 0
BBX 6 8 1 0
BITMAP
78
84
64
94
8c
cc
a4
44
ENDCHAR
STARTCHAR AE
ENCODING 198
SWIDTH 800 0
DWIDTH 10 0
BBX 8 11 1 -3
BITMAP
1e
61
31
21
21
61
a1
41
01
01
01
ENDCHAR
STARTCHAR Ccedilla
ENCODING 199
SWIDTH 640 0
DWIDTH 8 0
BBX 6 8 1 0
BITMAP
78
84
04
04
04
0c
14
08
ENDCHAR
STARTCHAR Egrave
ENCODING 200
SWIDTH 640 0
DWIDTH 8 0
BBX 7 9 1 0
BITMAP
02
7c
8c
b4
d4
e4
44
44
44
ENDCHAR
STARTCHAR Eacute
ENCODING 201
SWIDTH 800 0
DWIDTH 10 0
BBX 9 8 1 0
BITMAP
4100
a100
6500
2b80
2700
2100
2100
7f00
ENDCHAR
STARTCHAR Ecircumflex
ENCODING 202
SWIDTH 640 0
DWIDTH 8 0
BBX 7 9 1 0
BITMAP
02
74
8c
74
94
8c
cc
a4
44
ENDCHAR
STARTCHAR Ediaeresis
ENCODING 203
SWIDTH 800 0
DWIDTH 10 0
BBX 8 8 1 0
BITMAP
42
a5
62
25
29
31
31
21
ENDCHAR
STARTCHAR Igrave
ENCODING 204
SWIDTH 880 0
DWIDTH 11 0
BBX 10 8 1 0
BITMAP
44c0
a580
6a80
2a80
3180
3180
3180
2080
ENDCHAR
STARTCHAR Iacute
ENCODING 205
SWIDTH 640 0
DWIDTH 8 0
BBX 6 8 1 0
BITMAP
78
84
44
a4
c4
84
84
fc
ENDCHAR
STARTCHAR Icircumflex
ENCODING 206
SWIDTH 720 0
DWIDTH 9 0
BBX 7 8 1 0
BITMAP
7a
84
7c
24
54
64
44
7c
ENDCHAR
STARTCHAR Idiaeresis
ENCODING 207
SWIDTH 640 0
DWIDTH 8 0
BBX 6 8 1 0
BITMAP
44
a4
cc
74
04
04
04
08
ENDCHAR
STARTCHAR ETH
ENCODING 208
SWIDTH 560 0
DWIDTH 7 0
BBX 5 8 1 0
BITMAP
48
a8
70
00
00
48
a8
70
ENDCHAR
STARTCHAR Ntilde
ENCODING 209
SWIDTH 0 0
DWIDTH 0 0
BBX 6 3 -5 9
BITMAP
44
a8
70
ENDCHAR
STARTCHAR Ograve
ENCODING 210
SWIDTH 560 0
DWIDTH 7 0
BBX 5 8 1 0
BITMAP
70
88
08
08
08
08
08
08
ENDCHAR
STARTCHAR Oacute
ENCODING 211
SWIDTH 560 0
DWIDTH 7 0
BBX 9 12 -3 0
BITMAP
4000
a000
4000
0000
0700
0880
0080
0080
0080
0080
0080
0080
ENDCHAR
STARTCHAR Ocircumflex
ENCODING 212
SWIDTH 0 0
DWIDTH 0 0
BBX 6 3 -7 9
BITMAP
78
84
fc
ENDCHAR
STARTCHAR Otilde
ENCODING 213
SWIDTH 0 0
DWIDTH 0 0
BBX 6 4 -7 9
BITMAP
04
74
8c
fc
ENDCHAR
STARTCHAR Odiaeresis
ENCODING 214
SWIDTH 0 0
DWIDTH 0 0
BBX 6 4 -7 9
BITMAP
0c
7c
84
fc
ENDCHAR
STARTCHAR multiply
ENCODING 215
SWIDTH 0 0
DWIDTH 0 0
BBX 6 4 -7 9
BITMAP
14
7c
84
fc
ENDCHAR
STARTCHAR Ooblique
ENCODING 216
SWIDTH 0 0
DWIDTH 0 0
BBX 3 4 -4 -4
BITMAP
40
a0
60
20
ENDCHAR
STARTCHAR Ugrave
ENCODING 217
SWIDTH 0 0
DWIDTH 0 0
BBX 5 4 -5 -6
BITMAP
48
a8
68
38
ENDCHAR
STARTCHAR Uacute
ENCODING 218
SWIDTH 800 0
DWIDTH 10 0
BBX 2 2 -3 -3
BITMAP
c0
c0
ENDCHAR
STARTCHAR Ucircumflex
ENCODING 219
SWIDTH 800 0
DWIDTH 10 0
BBX 8 14 0 0
BITMAP
00
00
00
00
00
00
00
00
00
00
00
00
00
00
ENDCHAR
STARTCHAR Udiaeresis
ENCODING 220
SWIDTH 800 0
DWIDTH 10 0
BBX 8 14 0 0
BITMAP
00
00
00
00
00
00
00
00
00
00
00
00
00
00
ENDCHAR
STARTCHAR Yacute
ENCODING 221
SWIDTH 800 0
DWIDTH 10 0
BBX 8 14 0 0
BITMAP
00
00
00
00
00
00
00
00
00
00
00
00
00
00
ENDCHAR
STARTCHAR THORN
ENCODING 222
SWIDTH 800 0
DWIDTH 10 0
BBX 8 14 0 0
BITMAP
00
00
00
00
00
00
00
00
00
00
00
00
00
00
ENDCHAR
STARTCHAR ssharp
ENCODING 223
SWIDTH 640 0
DWIDTH 8 0
BBX 6 11 1 -1
BITMAP
20
f8
a4
a4
a4
f8
a4
a4
a4
f8
20
ENDCHAR
STARTCHAR agrave
ENCODING 224
SWIDTH 320 0
DWIDTH 4 0
BBX 3 8 1 0
BITMAP
80
80
80
80
80
c0
a0
40
ENDCHAR
STARTCHAR aacute
ENCODING 225
SWIDTH 560 0
DWIDTH 7 0
BBX 6 8 1 0
BITMAP
90
90
90
90
90
d8
b4
48
ENDCHAR
STARTCHAR acircumflex
ENCODING 226
SWIDTH 400 0
DWIDTH 5 0
BBX 6 13 -1 0
BITMAP
7c
e0
10
10
10
10
10
10
10
10
18
14
08
ENDCHAR
STARTCHAR atilde
ENCODING 227
SWIDTH 400 0
DWIDTH 5 0
BBX 6 13 -1 0
BITMAP
60
d0
b0
50
10
10
10
10
10
10
18
14
08
ENDCHAR
STARTCHAR adiaeresis
ENCODING 228
SWIDTH 480 0
DWIDTH 6 0
BBX 7 13 -1 0
BITMAP
98
a8
a8
a8
48
08
08
08
08
08
0c
0a
04
ENDCHAR
STARTCHAR aring
ENCODING 229
SWIDTH 560 0
DWIDTH 7 0
BBX 5 11 1 -3
BITMAP
70
88
08
08
08
08
08
08
08
08
08
ENDCHAR
STARTCHAR ae
ENCODING 230
SWIDTH 640 0
DWIDTH 8 0
BBX 6 11 1 -3
BITMAP
58
a4
c4
a4
44
04
04
04
04
04
18
ENDCHAR
STARTCHAR ccedilla
ENCODING 231
SWIDTH 0 0
DWIDTH 0 0
BBX 5 4 -6 9
BITMAP
08
78
90
f0
ENDCHAR
STARTCHAR egrave
ENCODING 232
SWIDTH 0 0
DWIDTH 0 0
BBX 1 2 -2 13
BITMAP
80
80
ENDCHAR
STARTCHAR eacute
ENCODING 233
SWIDTH 0 0
DWIDTH 0 0
BBX 4 3 -4 13
BITMAP
50
d0
60
ENDCHAR
STARTCHAR ecircumflex
ENCODING 234
SWIDTH 0 0
DWIDTH 0 0
BBX 5 3 -4 13
BITMAP
d0
a8
d0
ENDCHAR
STARTCHAR ediaeresis
ENCODING 235
SWIDTH 800 0
DWIDTH 10 0
BBX 3 3 -3 13
BITMAP
40
e0
40
ENDCHAR
STARTCHAR igrave
ENCODING 236
SWIDTH 0 0
DWIDTH 0 0
BBX 4 3 -3 13
BITMAP
70
c0
c0
ENDCHAR
STARTCHAR iacute
ENCODING 237
SWIDTH 0 0
DWIDTH 0 0
BBX 3 3 -4 9
BITMAP
40
a0
40
ENDCHAR
STARTCHAR icircumflex
ENCODING 238
SWIDTH 0 0
DWIDTH 0 0
BBX 4 4 -3 9
BITMAP
70
60
80
e0
ENDCHAR
STARTCHAR idiaeresis
ENCODING 239
SWIDTH 800 0
DWIDTH 10 0
BBX 8 8 1 0
BITMAP
3c
42
99
bd
bd
99
42
3c
ENDCHAR
STARTCHAR eth
ENCODING 240
SWIDTH 640 0
DWIDTH 8 0
BBX 6 5 1 0
BITMAP
78
84
84
84
78
ENDCHAR
STARTCHAR ntilde
ENCODING 241
SWIDTH 640 0
DWIDTH 8 0
BBX 6 6 1 -1
BITMAP
78
84
b4
b4
74
08
ENDCHAR
STARTCHAR ograve
ENCODING 242
SWIDTH 880 0
DWIDTH 11 0
BBX 9 9 1 0
BITMAP
8000
4000
4000
5b00
7480
6880
5080
4080
7f80
ENDCHAR
STARTCHAR oacute
ENCODING 243
SWIDTH 800 0
DWIDTH 10 0
BBX 8 5 1 0
BITMAP
76
89
c9
a9
49
ENDCHAR
STARTCHAR ocircumflex
ENCODING 244
SWIDTH 800 0
DWIDTH 10 0
BBX 8 9 1 0
BITMAP
01
01
02
7c
80
90
a8
98
7e
ENDCHAR
STARTCHAR otilde
ENCODING 245
SWIDTH 800 0
DWIDTH 10 0
BBX 8 9 1 0
BITMAP
01
09
15
7e
80
90
a8
98
7e
ENDCHAR
STARTCHAR odiaeresis
ENCODING 246
SWIDTH 640 0
DWIDTH 8 0
BBX 6 8 1 0
BITMAP
80
40
40
78
04
24
54
38
ENDCHAR
STARTCHAR division
ENCODING 247
SWIDTH 880 0
DWIDTH 11 0
BBX 9 8 1 0
BITMAP
0080
0100
6d00
9500
8500
c500
a600
4e00
ENDCHAR
STARTCHAR oslash
ENCODING 248
SWIDTH 800 0
DWIDTH 10 0
BBX 8 8 1 0
BITMAP
01
01
7e
80
80
a4
aa
5c
ENDCHAR
STARTCHAR ugrave
ENCODING 249
SWIDTH 800 0
DWIDTH 10 0
BBX 8 8 1 0
BITMAP
01
01
75
9a
a8
f4
94
62
ENDCHAR
STARTCHAR uacute
ENCODING 250
SWIDTH 800 0
DWIDTH 10 0
BBX 8 8 1 0
BITMAP
45
a5
cd
75
05
05
05
0a
ENDCHAR
STARTCHAR ucircumflex
ENCODING 251
SWIDTH 1280 0
DWIDTH 16 0
BBX 14 7 1 0
BITMAP
7800
c800
8000
82a4
8358
c400
7800
ENDCHAR
STARTCHAR udiaeresis
ENCODING 252
SWIDTH 800 0
DWIDTH 10 0
BBX 8 14 0 0
BITMAP
00
00
00
00
00
00
00
00
00
00
00
00
00
00
ENDCHAR
STARTCHAR yacute
ENCODING 253
SWIDTH 800 0
DWIDTH 10 0
BBX 8 14 0 0
BITMAP
00
00
00
00
00
00
00
00
00
00
00
00
00
00
ENDCHAR
STARTCHAR thorn
ENCODING 254
SWIDTH 800 0
DWIDTH 10 0
BBX 8 14 0 0
BITMAP
00
00
00
00
00
00
00
00
00
00
00
00
00
00
ENDCHAR
STARTCHAR ydiaeresis
ENCODING 255
SWIDTH 800 0
DWIDTH 10 0
BBX 8 14 0 0
BITMAP
00
00
00
00
00
00
00
00
00
00
00
00
00
00
ENDCHAR
ENDFONT
